pedal_clip_forces.mot
version=1
nRows=181
nColumns=4
inDegrees=yes
endheader
time	PedalClip_calcn_r_Fx	PedalClip_calcn_r_Fy	PedalClip_calcn_r_Fz
0.3611755	17.0873227426922	-275.456126840817	-0
0.36213223	16.1651098545401	-272.942464890753	-0
0.36308897	15.2644481277296	-270.497272907134	-0
0.3640457	14.3835654797692	-268.119020373262	-0
0.3647956	13.5222734427313	-265.8072889566	-0
0.3655455	12.6836472164322	-263.561245768068	-0
0.36663661	11.8681043190939	-261.378230604977	-0
0.36772773	11.0738140950254	-259.253855994252	-0
0.36836607	10.2980561094523	-257.183335010802	-0
0.36900441	9.53753093634114	-255.16151614823	-0
0.36983683	8.78906058817615	-253.183054017773	-0
0.37066924	8.05102046977959	-251.243803645367	-0
0.37138222	7.32295499651095	-249.341642180803	-0
0.37225679	6.60676018754091	-247.479611237072	-0
0.37313136	5.90367463665323	-245.660133840228	-0
0.37394433	5.21501679638412	-243.886758544982	-0
0.3747573	4.54091728916247	-242.159824062762	-0
0.37557027	3.88107707798198	-240.478470630509	-0
0.37638325	3.23508800090617	-238.841684805039	-0
0.37719622	2.60254877796269	-237.248216030112	-0
0.37800919	1.98350086676684	-235.6983414881	-0
0.37882216	1.37825958164572	-234.192923007173	-0
0.37963514	0.787179102835655	-232.732686948746	-0
0.38044811	0.210231784819819	-231.317031895196	-0
0.38126108	-0.353158745735121	-229.943756005782	-0
0.38207405	-0.903524875457735	-228.610903905659	-0
0.38288702	-1.44119513152817	-227.31751345214	-0
0.3837	-1.96652118059946	-226.062604911979	-0
0.38438692	-2.48042544111093	-224.843466992674	-0
0.38507385	-2.98322299589965	-223.65919113559	-0
0.38576078	-3.47500151231289	-222.508863278224	-0
0.38644771	-3.95607632357759	-221.391120308313	-0
0.38713464	-4.42686348417878	-220.304561355683	-0
0.38769931	-4.88811780130769	-219.247213109488	-0
0.38826398	-5.34113084861084	-218.21545405167	-0
0.3891245	-5.78683802572238	-217.206592272375	-0
0.38998501	-6.22586274816756	-216.218815013354	-0
0.39063371	-6.65892768661838	-215.250155015641	-0
0.39128241	-7.08693060577569	-214.298303204862	-0
0.39186788	-7.51098974432743	-213.359977046816	-0
0.39257961	-7.93161837219566	-212.433566821391	-0
0.39329133	-8.34902443644624	-211.518416506135	-0
0.39386723	-8.76333417917969	-210.614096439486	-0
0.39444313	-9.17462628595871	-209.720249642385	-0
0.39543275	-9.58285242098779	-208.83682575867	-0
0.39612321	-9.98788148042554	-207.963969529947	-0
0.39681367	-10.3894407185127	-207.10224859416	-0
0.39750413	-10.7872384470371	-206.252340519702	-0
0.39819458	-11.1806794433478	-205.415867230164	-0
0.39888504	-11.569186210314	-204.594392867455	-0
0.39945123	-11.952461889134	-203.788609576169	-0
0.4000147	-12.3305260961013	-202.998120587704	-0
0.40057816	-12.7035306792113	-202.222092007282	-0
0.40172469	-13.0716323023273	-201.460045162401	-0
0.40224555	-13.4350131536619	-200.711657018068	-0
0.40276641	-13.7937164908192	-199.977035550076	-0
0.40337057	-14.1477417613101	-199.256342001743	-0
0.40397474	-14.4971553482392	-198.549441124814	-0
0.40457891	-14.8420110725004	-197.856251301034	-0
0.40518308	-15.1824415150818	-197.176497536775	-0
0.40578725	-15.5187681894104	-196.509418635401	-0
0.40639142	-15.8513614952362	-195.854086390386	-0
0.40699559	-16.1804797363729	-195.209759934456	-0
0.40759976	-16.5061925678105	-194.576226551878	-0
0.40820392	-16.8285602134033	-193.953268309891	-0
0.40880809	-17.1476530515799	-193.340786065834	-0
0.40941226	-17.4636874468299	-192.738284580852	-0
0.41001643	-17.776838808384	-192.14551511782	-0
0.4106206	-18.0874498048144	-191.561895389356	-0
0.41122477	-18.3957737468509	-190.987202737098	-0
0.41182894	-18.7019279391682	-190.421193819121	-0
0.41243311	-19.0059664934185	-189.863538380124	-0
0.41303728	-19.3080452566326	-189.313482255599	-0
0.41364144	-19.6083116276935	-188.770267277405	-0
0.41424561	-19.9067750415383	-188.233483018522	-0
0.41484978	-20.2034233673416	-187.702815540746	-0
0.41545395	-20.4981495114818	-187.178286045089	-0
0.41605812	-20.7908449361142	-186.659950017147	-0
0.41666229	-21.0813407862719	-186.148153187056	-0
0.41726646	-21.3694908941873	-185.64326273752	-0
0.41787063	-21.6552152728377	-185.145229775276	-0
0.41847479	-21.9384570141688	-184.653960042815	-0
0.41907896	-22.219201697406	-184.169274983076	-0
0.41968313	-22.4974315538717	-183.691061048266	-0
0.4202873	-22.773168717912	-183.219106241138	-0
0.42089147	-23.0464294576169	-182.753280295945	-0
0.42145023	-23.3172706866556	-182.293349005576	-0
0.42200898	-23.5857291084194	-181.839195887823	-0
0.42256774	-23.8518863865375	-181.390565985244	-0
0.4231265	-24.1157959074223	-180.947345535541	-0
0.42368525	-24.3774994170674	-180.509497309161	-0
0.42424401	-24.6370518074319	-180.076965241078	-0
0.42480277	-24.8945648464911	-179.649494350142	-0
0.42536152	-25.1501553768314	-179.226834494717	-0
0.42592028	-25.4040337342324	-178.808382234229	-0
0.42647904	-25.6564597377546	-178.393380426362	-0
0.42703779	-25.9076300341406	-177.981339327519	-0
0.42759655	-26.1577051391699	-177.571862553098	-0
0.42815531	-26.4067452495277	-177.164928268913	-0
0.42871406	-26.6547556030904	-176.760715795979	-0
0.42927282	-26.901721077374	-176.359508133591	-0
0.42983158	-27.1476017763129	-175.96171293209	-0
0.43039033	-27.3923547290106	-175.567862327866	-0
0.43094909	-27.635835128655	-175.178789211881	-0
0.43150785	-27.8780187574216	-174.794623963382	-0
0.4320666	-28.1188944235603	-174.415150035166	-0
0.43262536	-28.3584300619931	-174.04000520152	-0
0.43318411	-28.596688328231	-173.668484603303	-0
0.43374287	-28.8337474403018	-173.299991586973	-0
0.43430163	-29.0695430657003	-172.93468894975	-0
0.43486038	-29.3039867155231	-172.572817278743	-0
0.43541914	-29.5371093280169	-172.214161875448	-0
0.4359779	-29.7689590723649	-171.858447727051	-0
0.43653665	-29.9995740850186	-171.50556919224	-0
0.43709541	-30.2289697020262	-171.155509457724	-0
0.43765417	-30.4571366317218	-170.808236348565	-0
0.43821292	-30.6840275241181	-170.463749912742	-0
0.43877168	-30.90955535384	-170.122103548275	-0
0.43933044	-31.1336206297518	-169.783364544739	-0
0.43983236	-31.3561404716309	-169.447538614285	-0
0.44033429	-31.5770720052563	-169.114527992171	-0
0.4409158	-31.7963784199431	-168.784265726626	-0
0.44149731	-32.0140670042168	-168.456575591304	-0
0.44207882	-32.2301607526093	-168.131262425239	-0
0.44252153	-32.4447010586051	-167.808104010537	-0
0.44296425	-32.6577307903237	-167.486918180492	-0
0.44353548	-32.8693182998	-167.167493298436	-0
0.44410672	-33.0795231885114	-166.849728109391	-0
0.44467796	-33.2884283098116	-166.533520022762	-0
0.44524919	-33.496137574041	-166.218738155827	-0
0.44582043	-33.7027396767244	-165.905347316661	-0
0.44626011	-33.9082759816262	-165.593480189385	-0
0.44669979	-34.1127942815181	-165.283236127361	-0
0.44727235	-34.3163503245734	-164.97476652159	-0
0.44784491	-34.5191215776274	-164.667947528913	-0
0.4482899	-34.7212251603047	-164.362561049248	-0
0.4487349	-34.9228107965426	-164.058192826351	-0
0.44926083	-35.1238620986981	-163.754936651559	-0
0.44978676	-35.3244314649736	-163.452535693611	-0
0.45031269	-35.5245067286503	-163.151034341409	-0
0.45083862	-35.7241359944973	-162.850311633935	-0
0.45136455	-35.923176692247	-162.550872262745	-0
0.45189048	-36.1215107360318	-162.253185261159	-0
0.45241641	-36.3190089149556	-161.957802772261	-0
0.45294234	-36.515447455356	-161.665636901878	-0
0.45346827	-36.7106787205559	-161.37749709587	-0
0.4539942	-36.9045115866143	-161.094267565107	-0
0.45452013	-37.0968529233387	-160.816247230043	-0
0.45504606	-37.2875563783115	-160.543855129128	-0
0.45557199	-37.4762757232609	-160.278066133829	-0
0.45609792	-37.6627278043094	-160.019348103791	-0
0.45662385	-37.8468151902783	-159.767485234646	-0
0.45714978	-38.0284796935523	-159.522414955628	-0
0.45767571	-38.2075871916807	-159.284491719513	-0
0.45820164	-38.3841140943659	-159.053709412598	-0
0.45872757	-38.5580463124828	-158.83007674189	-0
0.4592535	-38.7293384514115	-158.613755104307	-0
0.45977943	-38.8979568864188	-158.404721626114	-0
0.46030536	-39.0640117427153	-158.202526216421	-0
0.460743	-39.2277646032486	-158.00623742733	-0
0.46120011	-39.3894631875762	-157.81497647872	-0
0.46165722	-39.5494746641766	-157.627380388122	-0
0.46222108	-39.7080406736693	-157.442461913524	-0
0.46278495	-39.8653361527109	-157.259420070498	-0
0.46321599	-40.0216376057091	-157.077225562237	-0
0.46364703	-40.1772961907283	-156.894877813569	-0
0.46411884	-40.33253072387	-156.711983466047	-0
0.4645412	-40.4876576839369	-156.527850379474	-0
0.46496356	-40.6429357681171	-156.341953177147	-0
0.46548823	-40.7986527568743	-156.153593364758	-0
0.4660129	-40.954941495648	-155.962656524129	-0
0.46653756	-41.1117748908912	-155.769531595513	-0
0.46706223	-41.2689938704669	-155.574972346643	-0
0.4675869	-41.4265309681298	-155.379153133468	-0
0.46800454	-41.5842501167169	-155.182429203141	-0
0.46842218	-41.7420400353043	-154.985256242473	-0
0.46893779	-41.8998224514667	-154.787989308029	-0
0.46945339	-42.0574719596864	-154.591132187721	-0
0.469969	-42.214906305408	-154.395347434751	-0
0.47048461	-42.372086976972	-154.201118548182	-0
0.47100021	-42.5290175393907	-154.00835297414	-0
